<?xml version="1.0" encoding="UTF-8"?>
<svg version="1.1" xmlns="http://www.w3.org/2000/svg" width="1024" height="1024">
<path d="M0 0 C337.92 0 675.84 0 1024 0 C1024 337.92 1024 675.84 1024 1024 C686.08 1024 348.16 1024 0 1024 C0 686.08 0 348.16 0 0 Z " fill="#FDFDFD" transform="translate(0,0)"/>
<path d="M0 0 C5.77946995 4.57452511 10.34212608 11.0587597 11.6171875 18.42578125 C12.14974445 28.1859115 12.0434834 37.16305734 8.6171875 46.42578125 C8.22660156 47.53824219 7.83601563 48.65070313 7.43359375 49.796875 C-0.38091065 70.71672389 -12.89210564 89.91302143 -28.22265625 106.125 C-30.01962823 108.03895389 -31.72660241 109.98762127 -33.43359375 111.98046875 C-37.79132587 116.9780704 -42.44642263 121.67545869 -47.13330078 126.36157227 C-48.62174487 127.8521974 -50.10198527 129.35065142 -51.58203125 130.84960938 C-57.85598782 137.16025841 -64.41330281 142.87913877 -71.3828125 148.42578125 C-72.63087104 149.47374932 -73.87492037 150.52652752 -75.11328125 151.5859375 C-89.1208499 163.42074808 -104.46176432 173.75574613 -120.4453125 182.73828125 C-121.14720703 183.13684326 -121.84910156 183.53540527 -122.57226562 183.94604492 C-126.68116311 186.1973243 -130.77206482 187.97959472 -135.18359375 189.5625 C-145.48163863 193.43857197 -152.60678791 196.89616315 -157.64501953 207.05883789 C-159.5932899 211.57576826 -161.35527295 216.13784242 -163.02490234 220.76464844 C-164.43949905 224.57861682 -165.99302387 228.30115623 -167.62109375 232.02734375 C-167.89459152 232.6533699 -168.16808929 233.27939606 -168.44987488 233.9243927 C-168.99529437 235.17092278 -169.54118232 236.41724799 -170.08755493 237.6633606 C-171.34328323 240.54494839 -172.56498378 243.44079336 -173.7890625 246.3359375 C-175.93265774 251.39083054 -178.1286309 256.41926976 -180.3828125 261.42578125 C-179.83753906 260.68714844 -179.29226563 259.94851563 -178.73046875 259.1875 C-158.50256347 231.97491632 -132.60902296 198.05774758 -98.3828125 188.42578125 C-91.12367014 187.59892628 -84.06309219 188.40029226 -77.3828125 191.42578125 C-74.5078125 193.73828125 -74.5078125 193.73828125 -72.3828125 196.42578125 C-71.6196875 197.25078125 -70.8565625 198.07578125 -70.0703125 198.92578125 C-66.61520935 206.09192111 -67.68479121 214.04128255 -69.9453125 221.48828125 C-80.300176 248.67424589 -105.28966495 266.28794488 -130.86499023 278.02832031 C-136.94190056 280.74420389 -143.13309785 283.13878618 -149.3828125 285.42578125 C-147.08636021 292.61532796 -144.39226095 299.57786533 -141.5078125 306.55078125 C-140.87552734 308.11892578 -140.87552734 308.11892578 -140.23046875 309.71875 C-136.06505197 319.97796556 -136.06505197 319.97796556 -128.1953125 327.42578125 C-118.53440845 329.95978887 -110.72457392 326.50905109 -102.36474609 321.65087891 C-96.24316566 317.86693081 -90.50262272 313.51262096 -84.74902344 309.19921875 C-80.78934966 306.23150617 -76.80346159 303.29936617 -72.8203125 300.36328125 C-72.03084229 299.78022217 -71.24137207 299.19716309 -70.42797852 298.59643555 C17.17289422 234.00912268 17.17289422 234.00912268 43.6171875 235.42578125 C44.6071875 236.08578125 45.5971875 236.74578125 46.6171875 237.42578125 C47.1796875 240.73828125 47.1796875 240.73828125 46.6171875 244.42578125 C42.2363603 248.79974195 37.6030095 250.98185943 31.9296875 253.30078125 C15.67575825 260.2728571 3.54457575 268.59563472 -3.3828125 285.42578125 C-9.00307974 299.55505449 -5.22825266 314.95252004 -1.1953125 328.98828125 C-1.00158051 329.66574402 -0.80784851 330.34320679 -0.60824585 331.04119873 C1.91667168 339.75169586 4.99572897 348.10662118 8.6171875 356.42578125 C10.48844234 360.89792251 12.33387367 365.38059051 14.1796875 369.86328125 C14.64826172 370.98798828 15.11683594 372.11269531 15.59960938 373.27148438 C21.68540342 388.09018009 28.38144788 404.84120594 23.55859375 420.96484375 C20.4923042 427.5295287 16.65266738 432.40586051 10.6171875 436.42578125 C9.97394531 436.85761719 9.33070313 437.28945313 8.66796875 437.734375 C1.59410415 441.62836904 -6.57719157 441.35065564 -14.3828125 440.42578125 C-23.37328681 437.42485686 -30.05128954 429.8685612 -34.328125 421.59765625 C-44.39709805 399.11354167 -35.13086488 369.14608575 -28.38671875 346.91015625 C-26.27612387 339.5846674 -24.59687422 332.14329819 -22.90380859 324.71191406 C-22.48459954 322.87242316 -22.05457453 321.03539886 -21.62109375 319.19921875 C-20.12684118 312.18364993 -18.07889644 300.03361338 -21.3828125 293.42578125 C-27.1059176 292.92375449 -30.10109574 293.29242944 -34.64453125 296.84375 C-37.57632911 299.51201546 -40.33044767 302.3525332 -43.10522461 305.18237305 C-50.43303469 312.65108425 -57.67015271 319.97709175 -65.91015625 326.4453125 C-68.32869117 328.38243288 -70.56424549 330.42811646 -72.8203125 332.55078125 C-88.48590208 346.78766906 -105.51137367 358.148599 -125.3828125 365.42578125 C-126.39988281 365.80476563 -127.41695312 366.18375 -128.46484375 366.57421875 C-136.30087268 368.86103844 -145.10777032 368.13592073 -152.3828125 364.42578125 C-172.80560763 351.67449292 -178.51405352 326.97735567 -183.68408203 305.07568359 C-183.87728027 304.26824707 -184.07047852 303.46081055 -184.26953125 302.62890625 C-184.43670654 301.91379883 -184.60388184 301.19869141 -184.77612305 300.46191406 C-185.42972915 298.26832256 -186.22483665 296.40047427 -187.3828125 294.42578125 C-188.0428125 294.09578125 -188.7028125 293.76578125 -189.3828125 293.42578125 C-189.64449219 294.12574219 -189.90617188 294.82570313 -190.17578125 295.546875 C-191.48527618 298.67016874 -193.04789681 301.52857726 -194.6953125 304.48828125 C-197.56873708 309.72615132 -200.17620299 315.06350404 -202.66015625 320.49609375 C-202.94558792 321.11929001 -203.23101959 321.74248627 -203.52510071 322.38456726 C-204.96829059 325.54282155 -206.39811387 328.70648902 -207.8137207 331.87719727 C-208.34698975 333.05209717 -208.88025879 334.22699707 -209.4296875 335.4375 C-209.90245117 336.49412842 -210.37521484 337.55075684 -210.86230469 338.6394043 C-212.76458312 342.12538755 -214.80321354 344.63598177 -218.3828125 346.42578125 C-221.75089686 346.71976887 -225.12839596 346.70384426 -228.5078125 346.73828125 C-229.89613281 346.78178711 -229.89613281 346.78178711 -231.3125 346.82617188 C-239.23232809 346.89888216 -244.41077405 345.0816454 -250.3203125 339.80078125 C-253.51698634 336.11976289 -253.70669211 333.75860133 -253.68359375 329.0234375 C-253.15978594 324.49964276 -251.29792396 320.52104191 -249.3828125 316.42578125 C-251.23835138 318.42452264 -253.09230381 320.42469609 -254.9453125 322.42578125 C-255.50105957 323.02447021 -256.05680664 323.62315918 -256.62939453 324.23999023 C-259.42431124 327.26148871 -262.14415112 330.30731353 -264.7578125 333.48828125 C-274.80089459 344.93836518 -288.61518473 356.41954702 -304.40625 357.6640625 C-315.66507645 357.91338383 -315.66507645 357.91338383 -320.3828125 353.42578125 C-326.61756262 347.19103113 -328.66823936 341.8830949 -328.7578125 332.92578125 C-328.51863107 307.70798939 -311.72286339 283.30846602 -299.5703125 261.92578125 C-293.79625023 252.68258365 -293.79625023 252.68258365 -291.3828125 242.42578125 C-296.28848288 242.03531545 -298.45911319 242.68472363 -302.1953125 245.86328125 C-309.966713 252.4945661 -316.77493844 259.65885613 -323.1484375 267.63671875 C-324.57105044 269.41249784 -326.01681644 271.17014884 -327.4921875 272.90234375 C-334.2730787 280.89587608 -340.03474854 289.52445759 -345.8828125 298.21044922 C-347.85123276 301.11758552 -349.86573857 303.98969247 -351.8828125 306.86328125 C-363.23484093 323.25834974 -374.11487166 340.12062033 -383.69921875 357.6171875 C-384.05137451 358.25543457 -384.40353027 358.89368164 -384.76635742 359.55126953 C-385.67951579 361.22018394 -386.57498509 362.89874482 -387.46875 364.578125 C-393.89292126 374.13571857 -403.96785046 376.47202492 -414.53515625 378.625 C-421.34189768 379.8530274 -428.53348473 380.57721336 -435.3828125 379.42578125 C-437.32421875 377.89453125 -437.32421875 377.89453125 -438.3828125 375.42578125 C-438.90935236 369.72744989 -438.08909468 365.53025126 -435.7578125 360.30078125 C-435.45496338 359.59469727 -435.15211426 358.88861328 -434.84008789 358.16113281 C-426.04087056 337.93951148 -416.31763346 318.10271742 -406.69140625 298.265625 C-404.6007849 293.95466121 -402.52790748 289.63632436 -400.48046875 285.3046875 C-394.58224866 272.82800547 -388.41932533 260.52386844 -381.93408203 248.34130859 C-380.86848974 246.33858541 -379.80719533 244.33357133 -378.74951172 242.32666016 C-377.13748431 239.27081275 -375.51223733 236.22238119 -373.8828125 233.17578125 C-373.14430054 231.77283813 -373.14430054 231.77283813 -372.39086914 230.34155273 C-371.92414795 229.47731689 -371.45742676 228.61308105 -370.9765625 227.72265625 C-370.36844727 226.58328613 -370.36844727 226.58328613 -369.74804688 225.42089844 C-367.23218361 221.74428281 -363.99488958 219.87750841 -359.69921875 218.7734375 C-350.53663086 217.39827675 -340.61733316 217.41871619 -332.4453125 222.11328125 C-329.65554768 225.24119939 -329.56936816 227.26366005 -329.3828125 231.42578125 C-330.33366009 233.98369518 -331.28060212 236.04802163 -332.6015625 238.39453125 C-333.35087106 239.80627812 -334.09814177 241.21910783 -334.84375 242.6328125 C-335.25270508 243.3973877 -335.66166016 244.16196289 -336.08300781 244.94970703 C-338.48499415 249.52539175 -340.71884388 254.18396638 -342.9765625 258.83203125 C-343.95278283 260.83089632 -344.9293483 262.82959285 -345.90625 264.828125 C-346.89845376 266.86066914 -347.89064107 268.89322132 -348.8828125 270.92578125 C-349.90618227 273.02086642 -350.92961933 275.11591872 -351.953125 277.2109375 C-354.43046157 282.28217432 -356.90697405 287.35381287 -359.3828125 292.42578125 C-358.4218087 291.15235641 -357.46189566 289.87810837 -356.50244141 288.60351562 C-355.96777252 287.89400757 -355.43310364 287.18449951 -354.88223267 286.45349121 C-353.07219756 284.00572754 -351.40614012 281.48482869 -349.7578125 278.92578125 C-341.49589296 266.44634849 -332.31936789 254.61416054 -322.3828125 243.42578125 C-321.84398437 242.81847168 -321.30515625 242.21116211 -320.75 241.58544922 C-306.09658902 225.19654579 -289.90482479 208.73533247 -266.953125 206.15234375 C-260.09350283 205.84377943 -253.50426067 207.53112339 -248.0078125 211.73828125 C-242.63474586 217.23927805 -241.7683056 222.41682874 -241.84082031 229.92382812 C-242.65868884 250.92518786 -258.27484989 272.76977413 -268.13842773 290.65600586 C-271.22273612 296.25744659 -274.21266289 301.89270475 -277.0703125 307.61328125 C-277.39741211 308.26683594 -277.72451172 308.92039062 -278.06152344 309.59375 C-280.20577622 313.93369892 -281.51559187 317.26400491 -281.4453125 322.11328125 C-281.43628906 322.92152344 -281.42726563 323.72976563 -281.41796875 324.5625 C-281.40636719 325.17738281 -281.39476562 325.79226563 -281.3828125 326.42578125 C-268.18308819 325.15657699 -256.57745907 310.40973241 -248.6953125 300.86328125 C-247.24640675 299.05988594 -245.81044031 297.24606731 -244.3828125 295.42578125 C-243.84019775 294.78954834 -243.29758301 294.15331543 -242.73852539 293.49780273 C-237.87903796 287.63308583 -234.99519329 281.66190587 -232.1953125 274.61328125 C-231.24440558 272.29519695 -230.29254976 269.97750172 -229.33984375 267.66015625 C-228.85467285 266.46841797 -228.36950195 265.27667969 -227.86962891 264.04882812 C-225.43895904 258.1258165 -222.91140107 252.24500705 -220.3828125 246.36328125 C-219.89047119 245.214646 -219.39812988 244.06601074 -218.89086914 242.88256836 C-213.80171789 231.02841743 -208.60536873 219.22166212 -203.3828125 207.42578125 C-204.75953125 207.51279297 -204.75953125 207.51279297 -206.1640625 207.6015625 C-213.94992668 207.88780751 -219.50363707 207.86068649 -225.3828125 202.42578125 C-229.47611028 198.01761441 -230.53074517 194.80629353 -230.5703125 188.86328125 C-230.58449219 187.89261719 -230.59867188 186.92195312 -230.61328125 185.921875 C-230.3828125 183.42578125 -230.3828125 183.42578125 -228.3828125 181.42578125 C-227.91230469 182.06386719 -227.44179688 182.70195312 -226.95703125 183.359375 C-226.33441406 184.18566406 -225.71179688 185.01195312 -225.0703125 185.86328125 C-224.45542969 186.68699219 -223.84054687 187.51070312 -223.20703125 188.359375 C-221.46983553 190.67561762 -221.46983553 190.67561762 -218.3828125 191.42578125 C-215.98927587 191.54787149 -213.59193077 191.6012621 -211.1953125 191.61328125 C-209.92300781 191.62746094 -208.65070313 191.64164063 -207.33984375 191.65625 C-206.03402344 191.58019531 -204.72820312 191.50414062 -203.3828125 191.42578125 C-202.69904541 191.40281982 -202.01527832 191.3798584 -201.31079102 191.35620117 C-198.94023177 191.06777985 -197.43667698 190.66155136 -195.3828125 189.42578125 C-192.87594292 186.01027542 -191.33644437 182.25290901 -189.6953125 178.36328125 C-188.66125278 176.06994235 -187.62338043 173.77831939 -186.58203125 171.48828125 C-186.05528809 170.31265625 -185.52854492 169.13703125 -184.98583984 167.92578125 C-171.23652167 137.90594797 -153.64618389 109.27740279 -134.68554688 82.28271484 C-133.42626782 80.487723 -132.17753527 78.68576163 -130.9296875 76.8828125 C-124.52372788 67.69654232 -117.54905995 59.02700448 -110.3828125 50.42578125 C-109.87991699 49.81702148 -109.37702148 49.20826172 -108.85888672 48.58105469 C-98.98844964 36.65576912 -88.34336525 25.29015465 -76.3828125 15.42578125 C-75.30580078 14.49765625 -75.30580078 14.49765625 -74.20703125 13.55078125 C-53.81104429 -3.54045496 -24.75676966 -16.35570192 0 0 Z " fill="#231D19" transform="translate(831.3828125,212.57421875)"/>
<path d="M0 0 C0.70125 0.00515625 1.4025 0.0103125 2.125 0.015625 C2.82625 0.01046875 3.5275 0.0053125 4.25 0 C6.125 0.265625 6.125 0.265625 8.125 2.265625 C8.3182997 11.35071102 1.66865952 18.89274552 -4.1875 25.265625 C-12.67112885 33.38659491 -23.44545782 39.74511005 -34.375 43.953125 C-40.53766541 46.33184613 -44.98654928 49.88159712 -49.875 54.265625 C-50.36532715 54.70245605 -50.8556543 55.13928711 -51.36083984 55.58935547 C-54.91448208 58.76412083 -58.40326037 62.00159629 -61.875 65.265625 C-62.51179688 65.84828125 -63.14859375 66.4309375 -63.8046875 67.03125 C-69.88582532 72.79232794 -74.85185737 79.59147272 -79.875 86.265625 C-80.34566895 86.88663086 -80.81633789 87.50763672 -81.30126953 88.14746094 C-101.50582509 115.03596944 -116.24217896 146.00841104 -130.20359802 176.46185303 C-136.62801842 190.45811904 -143.2272651 204.37426516 -149.875 218.265625 C-150.1884436 218.92105286 -150.50188721 219.57648071 -150.8248291 220.25177002 C-161.47289818 242.47966752 -173.5580281 263.53437378 -186.875 284.265625 C-187.85339844 285.80089844 -187.85339844 285.80089844 -188.8515625 287.3671875 C-206.14859256 313.84557949 -227.88950536 339.73593378 -252.875 359.265625 C-253.81214844 360.03132813 -254.74929688 360.79703125 -255.71484375 361.5859375 C-275.34272872 377.29834992 -297.57669554 389.65773492 -321.875 396.265625 C-322.95523438 396.57242187 -324.03546875 396.87921875 -325.1484375 397.1953125 C-331.71746565 398.96844349 -338.08059347 399.96181007 -344.875 400.265625 C-346.42574219 400.34490234 -346.42574219 400.34490234 -348.0078125 400.42578125 C-368.86893989 400.98240066 -388.03514693 396.45134722 -403.625 381.953125 C-416.14772485 368.81017086 -417.4703204 353.74181018 -417.203125 336.48046875 C-416.06632179 305.87530371 -394.50578712 277.74468003 -373.21875 257.3046875 C-350.0752843 235.85226006 -319.88064922 219.80929874 -287.75390625 220.87890625 C-277.37794965 221.51059018 -267.59983807 225.30454503 -260.375 232.890625 C-257.8238125 238.63079687 -257.76361886 244.12476527 -259.86328125 250.05859375 C-263.99555641 258.71974015 -263.99555641 258.71974015 -267.875 261.265625 C-270.5 260.84765625 -270.5 260.84765625 -272.875 260.265625 C-272.88917969 259.52957031 -272.90335938 258.79351563 -272.91796875 258.03515625 C-273.2057009 251.79297534 -273.2057009 251.79297534 -275.875 246.265625 C-283.77275503 241.00045498 -291.86404661 240.29788322 -301.0625 241.828125 C-327.57841285 248.44553432 -348.66026127 272.80823013 -362.35693359 295.15014648 C-373.49941117 313.93298607 -383.1596586 336.18409826 -378.00390625 358.43359375 C-375.39952588 367.27406828 -371.40638252 372.70862969 -363.33984375 377.20703125 C-350.83724256 382.57661116 -336.71241761 378.42795857 -324.5625 374.140625 C-309.39771396 368.0856205 -297.07339268 358.21581316 -285.12109375 347.2890625 C-283.34774404 345.69150572 -281.55816018 344.18179008 -279.6875 342.703125 C-276.01632141 339.52143689 -273.01480639 335.96296711 -269.875 332.265625 C-268.57755859 330.79996094 -268.57755859 330.79996094 -267.25390625 329.3046875 C-232.38439405 289.76145378 -209.77956667 241.66149296 -188.59765625 193.875 C-166.45696031 143.98767802 -141.92889999 92.4689092 -99.30859375 56.578125 C-98.83550781 56.145 -98.36242187 55.711875 -97.875 55.265625 C-97.875 54.935625 -97.875 54.605625 -97.875 54.265625 C-99.09960938 54.37519531 -100.32421875 54.48476563 -101.5859375 54.59765625 C-112.68232261 55.54983148 -123.77508694 56.33674712 -134.89453125 56.9609375 C-135.9678772 57.02196152 -137.04122314 57.08298553 -138.14709473 57.14585876 C-143.5726477 57.45363542 -148.99845505 57.75216996 -154.42529297 58.03637695 C-196.22748728 60.32618075 -239.35997961 67.19335232 -270.875 97.265625 C-278.86376692 106.65644243 -284.40206686 117.28624609 -284.27734375 129.703125 C-283.51100393 136.48858048 -280.70430161 142.42529298 -275.87109375 147.27734375 C-267.321814 153.97725369 -258.33248071 154.20884875 -247.875 153.265625 C-237.20149043 151.25606908 -228.95208405 145.5228076 -222.15625 137.16015625 C-218.33623905 131.51166445 -215.84265683 125.09663829 -215.6640625 118.26171875 C-215.63570312 117.52115234 -215.60734375 116.78058594 -215.578125 116.01757812 C-215.52591816 114.47095063 -215.48168384 112.92403402 -215.4453125 111.37695312 C-215.21087416 105.77485356 -215.21087416 105.77485356 -213.54296875 103.24609375 C-211.875 102.265625 -211.875 102.265625 -208.5625 102.140625 C-203.77991282 103.5997194 -201.47284766 106.05501957 -198.875 110.265625 C-195.39159551 119.69630546 -197.3212811 132.41972401 -201.2734375 141.2734375 C-208.93463534 155.58679737 -219.79851464 164.47104126 -234.875 170.265625 C-235.8959375 170.67941406 -236.916875 171.09320313 -237.96875 171.51953125 C-255.29337576 177.55371522 -275.40597276 175.71419806 -291.875 168.265625 C-305.47955601 161.11007952 -315.62715739 149.84296558 -320.875 135.265625 C-325.43670081 117.17944502 -320.01753868 98.85875597 -310.875 83.265625 C-298.84680666 63.83546652 -280.40461152 50.51245617 -259.875 41.265625 C-258.84761719 40.79511719 -257.82023438 40.32460938 -256.76171875 39.83984375 C-243.91707705 34.22574461 -230.65544595 30.64983709 -216.875 28.265625 C-215.20630859 27.97365234 -215.20630859 27.97365234 -213.50390625 27.67578125 C-199.34973236 25.34790391 -185.30231053 25.10083486 -171 25.140625 C-170.07471497 25.14151123 -169.14942993 25.14239746 -168.19610596 25.14331055 C-156.53639444 25.15633116 -144.90189583 25.32140867 -133.25 25.765625 C-64.91925757 29.14510189 -64.91925757 29.14510189 -3.875 2.265625 C-1.875 0.265625 -1.875 0.265625 0 0 Z " fill="#231D19" transform="translate(554.875,284.734375)"/>
<path d="M0 0 C0.33 0 0.66 0 1 0 C1.03738281 1.25554688 1.07476562 2.51109375 1.11328125 3.8046875 C1.60827744 17.45321884 2.58407249 30.56597372 12.81640625 40.8203125 C14.80112177 42.41610397 16.7975838 43.72323698 19 45 C19.6703125 45.4125 20.340625 45.825 21.03125 46.25 C30.25221475 50.92541874 43.42227145 50.85095855 53.20703125 47.89453125 C56.95280673 46.55155445 60.47139655 44.8392491 64 43 C65.09183594 42.43539062 66.18367188 41.87078125 67.30859375 41.2890625 C73.52751706 37.85739696 78.89731157 33.93760145 84 29 C86.21265835 30.07280405 88.3519028 31.20393737 90.48046875 32.4375 C91.37378906 32.953125 92.26710938 33.46875 93.1875 34 C94.50814453 34.7734375 94.50814453 34.7734375 95.85546875 35.5625 C106.07247576 40.23313178 119.34993766 40.70513438 130.2421875 38.27734375 C139.24617441 34.89742769 143.73744606 29.58223105 147.875 21.1875 C148.2771875 20.39923828 148.679375 19.61097656 149.09375 18.79882812 C150.0746652 16.87203041 151.03905631 14.93683538 152 13 C152.99 13 153.98 13 155 13 C155.43570313 14.03898438 155.87140625 15.07796875 156.3203125 16.1484375 C162.98206039 31.84331949 170.45710115 46.45407623 186 55 C186.68835938 55.4125 187.37671875 55.825 188.0859375 56.25 C199.5531211 62.0439454 215.4890082 60.05079378 227.35546875 56.38671875 C250.15627754 47.71116985 270.35058452 32.57887716 288 16 C289.99215529 14.23041151 292.00107888 12.48227882 294.015625 10.73828125 C295.49858982 9.43922742 296.96469569 8.12088215 298.421875 6.79296875 C299.23140625 6.05691406 300.0409375 5.32085938 300.875 4.5625 C301.61492188 3.88316406 302.35484375 3.20382812 303.1171875 2.50390625 C305 1 305 1 307 1 C306.04950786 5.67830884 305.03764611 10.34029015 304 15 C303.80664062 15.96035156 303.61328125 16.92070313 303.4140625 17.91015625 C302.02807486 23.73310433 299.89562443 26.6992198 295.1328125 30.33203125 C291.67268776 33.03802624 288.73044397 36.24745856 285.67578125 39.39453125 C280.10769179 45.09146906 274.37136819 50.22147386 268 55 C267.21882812 55.5878125 267.21882812 55.5878125 266.421875 56.1875 C246.3425614 71.20007092 223.94692029 84.01681443 198 81 C182.06844863 77.39013186 169.81563194 68.2234479 160.8203125 54.73046875 C156 46.72565261 156 46.72565261 156 43 C155.34 43 154.68 43 154 43 C153.773125 43.556875 153.54625 44.11375 153.3125 44.6875 C148.90790204 52.44798212 140.74868098 56.7478748 132.52441406 59.38476562 C128.11155247 60.4602406 123.77277641 60.48609802 119.25 60.4375 C118.28715088 60.43210205 117.32430176 60.4267041 116.33227539 60.42114258 C107.84933907 60.24086682 99.6111002 59.21422904 92.47265625 54.23828125 C90.06567079 52.69978989 90.06567079 52.69978989 87.5078125 53.60546875 C84.87507849 55.0694657 82.37421392 56.63019331 79.875 58.3125 C65.11358094 67.78653993 47.18508027 74.00749434 29.5546875 70.26953125 C17.4698318 66.83474048 7.59672856 61.55554955 1.1875 50.4375 C-0.57513358 47.05138812 -1.96087685 43.68416389 -3 40 C-3.66 40 -4.32 40 -5 40 C-5.11915771 40.56895996 -5.23831543 41.13791992 -5.36108398 41.72412109 C-8.54426042 53.0628948 -16.91803114 65.51568204 -25 74 C-25.51304687 74.55300781 -26.02609375 75.10601563 -26.5546875 75.67578125 C-37.43046307 86.1457443 -53.83328167 90.2471388 -68.25 92.75 C-68.98250977 92.87793945 -69.71501953 93.00587891 -70.46972656 93.13769531 C-81.72496915 94.93509123 -93.55698204 94.32246376 -103.63671875 88.46875 C-105.51401046 87.05297363 -107.25557427 85.57357992 -109 84 C-109.99 83.34 -110.98 82.68 -112 82 C-112.25007812 82.55945313 -112.50015625 83.11890625 -112.7578125 83.6953125 C-115.10167686 88.04399166 -118.50765622 91.65171502 -121.67724609 95.41845703 C-122.96133881 96.95377498 -124.22516524 98.50597234 -125.48828125 100.05859375 C-131.92867296 107.8810335 -138.9200817 115.13359387 -146.0625 122.3125 C-147.42701294 123.69078979 -147.42701294 123.69078979 -148.8190918 125.09692383 C-176.96391722 153.11525566 -212.28554048 173.97867645 -251 183 C-252.10021484 183.28472168 -252.10021484 183.28472168 -253.22265625 183.57519531 C-260.50420058 185.29478821 -267.75808319 185.30422905 -275.19433594 185.26074219 C-277.36421878 185.25005311 -279.53326771 185.26067363 -281.703125 185.2734375 C-305.56641363 185.29690624 -326.17431547 178.10795094 -343.58203125 161.54296875 C-355.80883819 149.02286509 -362.30263808 132.39918002 -363 115 C-359.71775257 116.64112372 -358.87269087 120.23012295 -357.375 123.4375 C-348.69871315 141.26978649 -334.61984879 153.06028807 -315.99707031 159.71582031 C-312.04287562 160.99970098 -308.04900908 162.06317045 -304 163 C-303.26845703 163.17289551 -302.53691406 163.34579102 -301.78320312 163.52392578 C-298.3479322 164.11153791 -294.95624265 164.23784145 -291.48046875 164.30859375 C-290.75351807 164.32403732 -290.02656738 164.3394809 -289.27758789 164.35539246 C-250.52556347 165.02353968 -216.6028526 152.55133632 -185.60400391 129.20263672 C-184.03391806 128.0254308 -182.44482821 126.87370788 -180.85546875 125.72265625 C-174.73167228 121.24969067 -169.05171559 116.4854178 -163.50390625 111.31640625 C-161.44314155 109.40995778 -159.34613207 107.60448543 -157.1875 105.8125 C-147.08015252 97.01536423 -138.29757956 86.47143174 -130 76 C-129.0115871 74.77899951 -128.02192226 73.5590118 -127.03125 72.33984375 C-121.87730678 65.9764568 -116.86432977 59.63812681 -112.40234375 52.7578125 C-111 51 -111 51 -108 50 C-107.96132813 50.97839844 -107.96132813 50.97839844 -107.921875 51.9765625 C-107.55042882 57.70021052 -107.04940066 61.64689429 -103 66 C-91.31451131 74.03786885 -77.90942889 72.93364855 -64.48852539 70.55957031 C-55.07337679 68.63824241 -45.64666351 64.84640007 -38 59 C-37.34 59 -36.68 59 -36 59 C-35.73743408 58.43482666 -35.47486816 57.86965332 -35.2043457 57.28735352 C-33.90022174 54.81049614 -32.38109612 52.66244776 -30.73046875 50.40234375 C-27.13694122 45.32645128 -24.19481805 40.06433797 -21.3125 34.5625 C-8.02863823 9.69592732 -8.02863823 9.69592732 0 0 Z " fill="#55D3CE" transform="translate(486,536)"/>
<path d="M0 0 C-1.30204533 2.75250641 -2.74594326 5.1630472 -4.56640625 7.6015625 C-5.05173828 8.25640625 -5.53707031 8.91125 -6.03710938 9.5859375 C-6.54048828 10.25882812 -7.04386719 10.93171875 -7.5625 11.625 C-8.56514547 12.97035403 -9.56650916 14.31666456 -10.56640625 15.6640625 C-11.23071655 16.55279053 -11.23071655 16.55279053 -11.90844727 17.45947266 C-13.07473328 19.02262911 -13.07473328 19.02262911 -14 21 C-23.57 21.33 -33.14 21.66 -43 22 C-41.02 24.64 -39.04 27.28 -37 30 C-35.57421875 32.6875 -35.57421875 32.6875 -34.6875 35 C-34.38199219 35.763125 -34.07648438 36.52625 -33.76171875 37.3125 C-31.44722509 45.4785084 -32.06423967 49.5963883 -35.9375 57 C-36.35136963 57.83104248 -36.76523926 58.66208496 -37.19165039 59.51831055 C-38.44268043 62.02204472 -39.71859563 64.5117033 -41 67 C-42.31857071 69.60112491 -43.62860966 72.20649294 -44.9375 74.8125 C-45.26065186 75.45276123 -45.58380371 76.09302246 -45.91674805 76.75268555 C-51.62116616 88.13231114 -56.72171643 99.81249547 -61.84765625 111.4609375 C-68.4579297 126.46902348 -75.39112691 141.28176831 -82.56494141 156.02832031 C-84.56342731 160.16672971 -86.50125883 164.33223138 -88.4375 168.5 C-93.06451839 178.37681476 -98.38639729 187.74445829 -103.9375 197.125 C-104.67274902 198.378573 -104.67274902 198.378573 -105.42285156 199.6574707 C-115.12320389 215.8871526 -115.12320389 215.8871526 -122 218 C-125.55859375 218.3359375 -125.55859375 218.3359375 -129.4375 218.375 C-130.71496094 218.40335938 -131.99242187 218.43171875 -133.30859375 218.4609375 C-138.49786808 217.81296462 -141.46391643 215.72494631 -144.90625 211.859375 C-145.97376693 210.44648495 -147.03623311 209.02976534 -148.09375 207.609375 C-149.95083334 205.75938066 -149.95083334 205.75938066 -152.8046875 205.55859375 C-164.27391712 207.14297388 -174.18590995 217.08324307 -182 225 C-182.72832031 225.72960937 -183.45664063 226.45921875 -184.20703125 227.2109375 C-190.11902909 233.48441845 -194.53040002 240.67363075 -199 248 C-199.49628906 248.77085937 -199.99257812 249.54171875 -200.50390625 250.3359375 C-206.03994112 259.39490366 -211.35901829 273.24680829 -209 284 C-207.4512348 286.13491326 -206.52130189 286.86942534 -203.95703125 287.51171875 C-203.24933594 287.56972656 -202.54164063 287.62773438 -201.8125 287.6875 C-200.554375 287.790625 -199.29625 287.89375 -198 288 C-198 288.33 -198 288.66 -198 289 C-203.97813369 290.36069461 -209.90290941 290.67397145 -216 290 C-220.05104412 287.40733176 -221.96190336 284.0806505 -223.50390625 279.515625 C-224.88275575 272.52366376 -224.6177242 264.92751252 -223 258 C-222.34 258 -221.68 258 -221 258 C-220.86722656 257.45859375 -220.73445312 256.9171875 -220.59765625 256.359375 C-219.91051995 253.6467585 -219.17649541 250.94893977 -218.4375 248.25 C-218.16808594 247.26515625 -217.89867187 246.2803125 -217.62109375 245.265625 C-217.41613281 244.51796875 -217.21117187 243.7703125 -217 243 C-216.34 243 -215.68 243 -215 243 C-214.855625 242.236875 -214.71125 241.47375 -214.5625 240.6875 C-214 238 -214 238 -213 235 C-212.34 235 -211.68 235 -211 235 C-210.89300781 234.44183594 -210.78601563 233.88367188 -210.67578125 233.30859375 C-208.86266219 227.11464368 -204.36718246 220.67912406 -200 216 C-199.34 216 -198.68 216 -198 216 C-197.814375 215.34 -197.62875 214.68 -197.4375 214 C-190.88227598 200.31953248 -173.82005313 189.35871831 -160.203125 183.65234375 C-156.50141285 182.55626941 -152.80624026 182.34269747 -149 183 C-145.08001686 185.61332209 -145.2610864 187.54910682 -144 192 C-141.88206998 195.62097713 -140.50015337 197.66656442 -137 200 C-130.20035618 201.07481891 -124.27302761 200.1101981 -118.2890625 196.73828125 C-111.60841198 191.66509101 -106.91700476 183.10162725 -105 175 C-103.89739868 163.89880947 -105.27802038 155.64518066 -112.1953125 146.88671875 C-116.85685489 142.01328807 -122.92731939 138.80277567 -129 136 C-128.58427734 134.82244141 -128.58427734 134.82244141 -128.16015625 133.62109375 C-127.79792969 132.57050781 -127.43570313 131.51992188 -127.0625 130.4375 C-126.70285156 129.40496094 -126.34320313 128.37242187 -125.97265625 127.30859375 C-124.96323279 123.87493241 -124.42520695 120.54935906 -124 117 C-122.86046875 116.92523438 -121.7209375 116.85046875 -120.546875 116.7734375 C-97.15356459 114.94763033 -75.28911598 108.08295576 -58.75 90.625 C-46.58167569 76.24425309 -41.72982031 59.6019864 -43 41 C-44.35034926 32.79969721 -49.00407975 25.30583534 -55.375 20.03515625 C-62.78524291 15.34861869 -70.40924403 14.75622052 -79 16 C-83.09503044 17.76192799 -86.25198451 19.43775769 -89 23 C-89.86981623 26.91129284 -90.0916224 30.71151777 -90.18847656 34.7097168 C-90.46719199 43.95267233 -92.32738409 50.53330498 -98.3125 57.8125 C-99.199375 58.534375 -100.08625 59.25625 -101 60 C-101.56332031 60.4640625 -102.12664062 60.928125 -102.70703125 61.40625 C-108.2215084 65.44945117 -113.29687195 65.95909537 -120 65 C-124.15681261 63.31958639 -126.65721544 60.81787114 -129 57 C-130.44572589 49.91594316 -126.7039824 43.81629365 -123 38 C-103.21783341 13.145483 -67.69170913 5.37384636 -37.9375 1.8125 C-36.86872116 1.6816803 -36.86872116 1.6816803 -35.77835083 1.54821777 C-23.8172435 0.10110325 -12.05296905 -0.49363696 0 0 Z " fill="#79DED8" transform="translate(415,359)"/>
<path d="M0 0 C3.18252973 2.46646054 5.34289901 5.09184084 6.5 8.9375 C7.66610052 28.76120888 -3.78174861 48.72870564 -15.5 63.9375 C-16.65628906 65.48824219 -16.65628906 65.48824219 -17.8359375 67.0703125 C-22.43977509 73.20428331 -27.23925379 79.05138279 -32.44140625 84.6953125 C-34.22222371 86.63495049 -35.92791824 88.61268423 -37.625 90.625 C-41.22260896 94.75340372 -45.0748899 98.62175755 -48.9375 102.5 C-49.86876709 103.43815552 -49.86876709 103.43815552 -50.81884766 104.39526367 C-55.21518495 108.77721128 -59.77809613 112.90980752 -64.5 116.9375 C-65.13832764 117.48253174 -65.77665527 118.02756348 -66.43432617 118.58911133 C-85.52864943 134.76514089 -105.7998542 148.52567418 -127.5 160.9375 C-127.83 160.2775 -128.16 159.6175 -128.5 158.9375 C-127.44287109 156.3215332 -127.44287109 156.3215332 -125.7734375 152.98828125 C-125.47435486 152.38748245 -125.17527222 151.78668365 -124.86712646 151.16767883 C-123.87869438 149.19048218 -122.87759287 147.22004966 -121.875 145.25 C-121.53531189 144.5764447 -121.19562378 143.9028894 -120.84564209 143.20892334 C-114.88562595 131.39232096 -108.53849623 119.8287435 -101.90332031 108.37695312 C-100.25556039 105.51257992 -98.65598978 102.62368998 -97.06054688 99.72998047 C-88.48935863 84.23317742 -79.02016711 69.24638414 -68.80419922 54.78417969 C-67.49923509 52.93641693 -66.20436333 51.08187034 -64.91015625 49.2265625 C-57.15695523 38.17283183 -48.70059812 27.82657825 -39.5 17.9375 C-38.36304688 16.68453125 -38.36304688 16.68453125 -37.203125 15.40625 C-26.84432124 4.43810484 -15.73709979 -4.77733386 0 0 Z " fill="#F9FBFA" transform="translate(818.5,225.0625)"/>
<path d="M0 0 C0.33 0 0.66 0 1 0 C1.57809764 10.42181575 0.26991408 19.074196 -3 29 C-3.20367188 29.63131836 -3.40734375 30.26263672 -3.6171875 30.91308594 C-11.7341755 55.57720535 -26.3713987 76.3669064 -43 96 C-43.72316406 96.8559375 -44.44632813 97.711875 -45.19140625 98.59375 C-50.22461044 104.34598336 -55.6265268 109.75547077 -61 115.1875 C-62.12184692 116.32904541 -62.12184692 116.32904541 -63.26635742 117.49365234 C-68.20949704 122.44381577 -73.37485194 126.84181209 -79 131 C-78.13375 131.928125 -77.2675 132.85625 -76.375 133.8125 C-72.41578224 138.44562717 -69.65075756 143.53427867 -67 149 C-66.65582031 149.68449219 -66.31164062 150.36898437 -65.95703125 151.07421875 C-60.91606806 163.12046411 -63.15498199 181.36670846 -67.81445312 193.04052734 C-71.58092206 201.62303856 -76.23769366 209.60178465 -82 217 C-82.7115625 217.92554688 -83.423125 218.85109375 -84.15625 219.8046875 C-91.11665178 228.60053769 -98.44464999 234.71239712 -107.7890625 240.82421875 C-112.97128815 244.22906949 -118.01637592 247.72605186 -122.9375 251.5 C-127.1914249 254.71706574 -131.50223496 257.76330573 -136 260.625 C-137.051875 261.29789063 -138.10375 261.97078125 -139.1875 262.6640625 C-142 264 -142 264 -144.06933594 263.80834961 C-146 263 -146 263 -147.703125 259.40234375 C-148.23498412 257.91978647 -148.75000582 256.43110505 -149.25 254.9375 C-149.6521875 253.79958008 -149.6521875 253.79958008 -150.0625 252.63867188 C-150.72271967 250.76411958 -151.36325109 248.88265428 -152 247 C-147.79418105 243.50241481 -142.91224621 241.40441167 -138.01953125 239.04882812 C-132.91582363 236.55464333 -128.2473918 233.7479714 -123.75 230.25 C-122 229 -122 229 -120 229 C-120 228.34 -120 227.68 -120 227 C-118.47931686 225.83891728 -116.90478366 224.74826529 -115.3125 223.6875 C-97.89263878 211.29605233 -83.20827228 193.03808877 -78 172 C-76.44299719 160.30930339 -76.76773502 148.73881156 -84 139 C-88.86518571 132.80794547 -94.60150965 129.46616345 -102 127 C-100.45721693 122.87656162 -97.80980902 121.11342774 -94.3125 118.5625 C-86.52716681 112.76645823 -79.27215881 106.42011911 -72 100 C-71.08476563 99.19820313 -70.16953125 98.39640625 -69.2265625 97.5703125 C-39.17134796 71.10974156 -14.0459513 37.60988274 0 0 Z " fill="#62D6D2" transform="translate(856,261)"/>
<path d="M0 0 C5.84712496 4.70835905 10.3201548 11.00977655 11.7109375 18.4921875 C12.89208515 32.25933473 9.25465779 46.14167751 0.47753906 57.02099609 C-2.63653005 60.65107882 -5.950324 64.06961066 -9.2890625 67.4921875 C-9.86269531 68.13929688 -10.43632813 68.78640625 -11.02734375 69.453125 C-19.09774294 78.33682024 -30.33362572 84.10465116 -40.9140625 89.4296875 C-57.82646829 98.03599053 -71.02483751 111.61471447 -81.2890625 127.4921875 C-81.7840625 128.23726562 -82.2790625 128.98234375 -82.7890625 129.75 C-84.9034321 133.00564865 -86.49472662 135.65571423 -87.2890625 139.4921875 C-86.70640625 139.49476563 -86.12375 139.49734375 -85.5234375 139.5 C-76.31255244 139.93447571 -68.47348146 143.80594122 -61.2890625 149.4921875 C-61.9490625 151.1421875 -62.6090625 152.7921875 -63.2890625 154.4921875 C-66.56240194 153.89507283 -68.33748962 152.82452289 -70.8515625 150.6796875 C-75.55804435 147.00633581 -80.61798933 145.20936028 -86.2890625 143.4921875 C-86.89363281 143.29496094 -87.49820312 143.09773437 -88.12109375 142.89453125 C-91.47498132 142.27209806 -94.82846527 142.34860174 -98.2265625 142.3671875 C-98.92974609 142.36332031 -99.63292969 142.35945312 -100.35742188 142.35546875 C-104.12718762 142.36253485 -107.62500188 142.5887205 -111.2890625 143.4921875 C-111.6190625 142.8321875 -111.9490625 142.1721875 -112.2890625 141.4921875 C-111.28515625 139.2421875 -111.28515625 139.2421875 -109.7265625 136.4921875 C-109.16710937 135.50347656 -108.60765625 134.51476562 -108.03125 133.49609375 C-107.45632813 132.50480469 -106.88140625 131.51351562 -106.2890625 130.4921875 C-105.79664063 129.63496094 -105.30421875 128.77773438 -104.796875 127.89453125 C-91.35869452 104.97698562 -72.02600475 80.49439614 -47.66772461 68.73974609 C-29.38809799 59.91420499 -11.6715062 47.39181314 -3.9765625 27.9296875 C-2.48241478 23.53262422 -1.52101843 20.10045192 -2.2890625 15.4921875 C-4.1895092 13.64903079 -4.1895092 13.64903079 -6.2890625 12.4921875 C-6.2890625 11.8321875 -6.2890625 11.1721875 -6.2890625 10.4921875 C-16.6217961 5.50465647 -29.7634505 8.64883754 -40.2890625 11.4921875 C-42.49619179 11.97686997 -44.70454042 12.45603259 -46.9140625 12.9296875 C-52.14244929 14.11478851 -57.00078093 15.76652478 -61.94921875 17.8203125 C-64.56982104 18.57280598 -65.72973256 18.24047045 -68.2890625 17.4921875 C-67.65516602 17.20609619 -67.02126953 16.92000488 -66.36816406 16.62524414 C-55.39844456 11.63547616 -45.06063685 6.88840702 -35.63671875 -0.69140625 C-25.2117918 -8.75728151 -10.59779384 -6.98079935 0 0 Z " fill="#74DBD6" transform="translate(579.2890625,272.5078125)"/>
<path d="M0 0 C-1.30204533 2.75250641 -2.74594326 5.1630472 -4.56640625 7.6015625 C-5.05173828 8.25640625 -5.53707031 8.91125 -6.03710938 9.5859375 C-6.54048828 10.25882812 -7.04386719 10.93171875 -7.5625 11.625 C-8.56514547 12.97035403 -9.56650916 14.31666456 -10.56640625 15.6640625 C-11.23071655 16.55279053 -11.23071655 16.55279053 -11.90844727 17.45947266 C-13.07473328 19.02262911 -13.07473328 19.02262911 -14 21 C-28.355 21.495 -28.355 21.495 -43 22 C-41.02 24.64 -39.04 27.28 -37 30 C-34.2387009 35.20485968 -31.03603509 42.0588285 -32 48 C-34.02772536 52.85393325 -36.42045974 57.41986867 -39 62 C-39.99 62 -40.98 62 -42 62 C-42.01458252 61.410979 -42.02916504 60.82195801 -42.04418945 60.21508789 C-42.11953764 57.49696198 -42.21590384 54.77995058 -42.3125 52.0625 C-42.33505859 51.13630859 -42.35761719 50.21011719 -42.38085938 49.25585938 C-42.79063288 38.63900028 -45.70565883 29.92455079 -53 22 C-59.9853565 16.22099618 -66.63682245 15.35569266 -75.51953125 15.49609375 C-81.07137269 16.29989571 -85.54688977 18.52374599 -89 23 C-89.86981623 26.91129284 -90.0916224 30.71151777 -90.18847656 34.7097168 C-90.46719199 43.95267233 -92.32738409 50.53330498 -98.3125 57.8125 C-99.199375 58.534375 -100.08625 59.25625 -101 60 C-101.56332031 60.4640625 -102.12664062 60.928125 -102.70703125 61.40625 C-108.2215084 65.44945117 -113.29687195 65.95909537 -120 65 C-124.15681261 63.31958639 -126.65721544 60.81787114 -129 57 C-130.44572589 49.91594316 -126.7039824 43.81629365 -123 38 C-103.21783341 13.145483 -67.69170913 5.37384636 -37.9375 1.8125 C-36.86872116 1.6816803 -36.86872116 1.6816803 -35.77835083 1.54821777 C-23.8172435 0.10110325 -12.05296905 -0.49363696 0 0 Z " fill="#57D3CE" transform="translate(415,359)"/>
<path d="M0 0 C1.19013644 3.57040932 0.68397105 4.49104169 -0.4375 8 C-5.24128352 26.24109502 -1.24534113 44.49142279 7.52734375 60.84765625 C14.13106354 71.89529101 22.85788065 79.7008079 34 86 C34.96292969 86.56460938 34.96292969 86.56460938 35.9453125 87.140625 C42.52831697 90.73135471 49.881731 92.73846662 57 95 C57.17834899 99.55347254 57.01968283 102.83501925 55 106.9375 C54.62875 107.70964844 54.2575 108.48179687 53.875 109.27734375 C53.58625 109.84582031 53.2975 110.41429687 53 111 C41.78686525 113.22286812 33.00348061 106.85062936 24 101 C5.65316539 88.52415246 -5.20899122 70.48045567 -9.453125 48.9296875 C-11.94744161 31.00624101 -8.9233696 15.79626278 0 0 Z " fill="#52D2CE" transform="translate(219,379)"/>
<path d="M0 0 C-1.45333184 4.74901869 -3.39408662 9.1378282 -5.625 13.5625 C-5.97618896 14.25996338 -6.32737793 14.95742676 -6.68920898 15.67602539 C-11.85862097 25.7902926 -17.78821695 35.20967216 -25 44 C-25.64195312 44.8146875 -26.28390625 45.629375 -26.9453125 46.46875 C-38.59290753 61.08196885 -51.7830937 74.87881295 -66 87 C-67.50159716 88.31067243 -69.00162957 89.62313997 -70.5 90.9375 C-71.66666667 91.95833333 -72.83333333 92.97916667 -74 94 C-74.33 93.34 -74.66 92.68 -75 92 C-74.28735352 90.30419922 -74.28735352 90.30419922 -73.12890625 88.3046875 C-72.71962891 87.58925781 -72.31035156 86.87382812 -71.88867188 86.13671875 C-71.45103516 85.39035156 -71.01339844 84.64398438 -70.5625 83.875 C-70.12873047 83.12089844 -69.69496094 82.36679687 -69.24804688 81.58984375 C-68.17251034 79.72242866 -67.08715861 77.86067303 -66 76 C-65.34 76 -64.68 76 -64 76 C-63.90460937 75.28457031 -63.80921875 74.56914062 -63.7109375 73.83203125 C-62.88176913 70.52902539 -61.56367258 68.48472758 -59.625 65.6875 C-58.90054688 64.63433594 -58.17609375 63.58117187 -57.4296875 62.49609375 C-57.03620117 61.93132324 -56.64271484 61.36655273 -56.23730469 60.78466797 C-54.95860012 58.9402855 -53.70025083 57.0832799 -52.4453125 55.22265625 C-45.92530353 45.58854175 -39.10293616 36.21229296 -32 27 C-31.24074219 26.01257813 -30.48148438 25.02515625 -29.69921875 24.0078125 C-25.53209653 18.75129635 -21.06741145 13.84866593 -16.375 9.0625 C-15.84849854 8.51827393 -15.32199707 7.97404785 -14.77954102 7.41333008 C-5.51167598 -1.83722533 -5.51167598 -1.83722533 0 0 Z " fill="#62D6D1" transform="translate(809,243)"/>
<path d="M0 0 C2 2 2 2 2.0625 5.4375 C0.12070512 17.63991558 -11.26375858 27.6948281 -20.72900391 34.59472656 C-32.49206584 42.85085369 -44.60962946 48.8579071 -59 50 C-57.54607778 45.49699518 -55.02130292 42.36455265 -51.9375 38.875 C-50.93120937 37.71708552 -49.92601536 36.55821719 -48.921875 35.3984375 C-48.42365234 34.82448242 -47.92542969 34.25052734 -47.41210938 33.65917969 C-45.43000653 31.33027738 -43.56826787 28.91105957 -41.6875 26.5 C-32.37989187 15.11108415 -16.07061387 -3.63862955 0 0 Z " fill="#F8F8F8" transform="translate(719,436)"/>
<path d="M0 0 C-2.15686223 8.00473278 -5.16733463 15.51650279 -8.4375 23.125 C-8.91509766 24.25292969 -9.39269531 25.38085938 -9.88476562 26.54296875 C-12.41002138 32.46640817 -15.04212341 38.28004007 -18 44 C-18.33 44 -18.66 44 -19 44 C-19.08636719 43.31035156 -19.17273438 42.62070312 -19.26171875 41.91015625 C-20.71762467 32.17295058 -24.55176466 23.67030854 -32 17 C-34.90478428 15.11903313 -37.88427622 13.50247125 -41 12 C-41 11.34 -41 10.68 -41 10 C-40.43716309 9.93530518 -39.87432617 9.87061035 -39.29443359 9.80395508 C-26.83283222 8.3246637 -15.06719648 6.65186602 -3.75390625 0.84765625 C-2 0 -2 0 0 0 Z " fill="#F8FDFC" transform="translate(342,485)"/>
<path d="M0 0 C1.58025005 0.21192095 3.16398461 0.39923371 4.75 0.5625 C5.54921875 0.64628906 6.3484375 0.73007812 7.171875 0.81640625 C8.07679688 0.90728516 8.07679688 0.90728516 9 1 C9 1.66 9 2.32 9 3 C10.175625 3.12375 10.175625 3.12375 11.375 3.25 C12.24125 3.4975 13.1075 3.745 14 4 C14.70151152 5.3153341 15.36525925 6.65117592 16 8 C17.64821244 9.03013277 19.31503702 10.03114628 21 11 C23 14 23 14 23 18 C21.68 17.34 20.36 16.68 19 16 C19 15.34 19 14.68 19 14 C8.6672664 9.01246897 -4.474388 12.15665004 -15 15 C-17.20712929 15.48468247 -19.41547792 15.96384509 -21.625 16.4375 C-26.85338679 17.62260101 -31.71171843 19.27433728 -36.66015625 21.328125 C-39.28075854 22.08061848 -40.44067006 21.74828295 -43 21 C-42.36610352 20.71390869 -41.73220703 20.42781738 -41.07910156 20.13305664 C-24.82709078 12.82528132 -24.82709078 12.82528132 -10.20703125 2.77734375 C-6.51063227 -0.19940233 -4.61053839 -1.48698662 0 0 Z " fill="#7ED6D2" transform="translate(554,269)"/>
<path d="M0 0 C0.68255859 -0.01772461 1.36511719 -0.03544922 2.06835938 -0.05371094 C8.04072612 -0.04488478 10.97574771 1.94309816 15.5 5.5625 C18.25019452 9.0198874 18.1098968 11.00405261 17.6875 15.3125 C17.625625 14.69375 17.56375 14.075 17.5 13.4375 C16.87374774 11.06570779 16.87374774 11.06570779 14.3125 10.1875 C13.44625 9.89875 12.58 9.61 11.6875 9.3125 C10.6975 8.6525 9.7075 7.9925 8.6875 7.3125 C8.6875 6.6525 8.6875 5.9925 8.6875 5.3125 C6.2125 4.8175 6.2125 4.8175 3.6875 4.3125 C3.0275 5.3025 2.3675 6.2925 1.6875 7.3125 C-0.6225 6.6525 -2.9325 5.9925 -5.3125 5.3125 C-4.9825 4.6525 -4.6525 3.9925 -4.3125 3.3125 C-7.35355741 3.74693677 -10.11438097 4.23878129 -13 5.3125 C-16.94664141 6.50393892 -20.59045023 6.75968952 -24.6875 6.9375 C-25.42355469 6.97617187 -26.15960937 7.01484375 -26.91796875 7.0546875 C-28.71577406 7.14807998 -30.51410108 7.2313371 -32.3125 7.3125 C-32.3125 7.9725 -32.3125 8.6325 -32.3125 9.3125 C-34.62743349 11.26572513 -36.34521325 12.32680369 -39.42578125 12.28125 C-41.39834862 12.02898561 -43.35755431 11.6769814 -45.3125 11.3125 C-39.25750559 5.25750559 -26.5489488 4.27754108 -18.3125 2.3125 C-16.98025391 1.96638672 -16.98025391 1.96638672 -15.62109375 1.61328125 C-10.44022376 0.37723613 -5.31415865 0.08385733 0 0 Z " fill="#C8EDED" transform="translate(560.3125,279.6875)"/>
<path d="M0 0 C1.29550781 -0.02578125 2.59101563 -0.0515625 3.92578125 -0.078125 C7.88333975 0.2670826 10.29204069 1.24957436 13.6875 3.25 C10.6875 4.25 10.6875 4.25 7.8125 3.25 C4.29333502 2.12386721 3.14864511 2.09964857 -0.3125 3.25 C-2.4535604 4.94690425 -4.3653121 6.60717521 -6.3125 8.5 C-6.82039063 8.97824219 -7.32828125 9.45648438 -7.8515625 9.94921875 C-9.35237081 11.3692143 -10.83472458 12.80608197 -12.3125 14.25 C-13.22 15.13171875 -14.1275 16.0134375 -15.0625 16.921875 C-17.43078136 19.2331191 -17.43078136 19.2331191 -19.3125 22.25 C-19.7454588 9.91067416 -19.7454588 9.91067416 -15.7265625 5.515625 C-10.57587808 0.95172741 -6.94134659 0.08238987 0 0 Z " fill="#B9E6E5" transform="translate(343.3125,373.75)"/>
<path d="M0 0 C3.30291019 3.01570061 3.92927659 5.16546371 4.3125 9.6875 C4.22460368 15.65346285 1.73307613 20.06885802 -2.1875 24.4375 C-6.0376826 26.57649033 -9.65127744 26.81051318 -14 27 C-14 26.34 -14 25.68 -14 25 C-12.63875 24.1028125 -12.63875 24.1028125 -11.25 23.1875 C-6.19776287 19.78695578 -3.23596794 15.64315718 -1 10 C-0.4814291 6.67416548 -0.19253349 3.35937749 0 0 Z " fill="#D2B79B" transform="translate(844,614)"/>
<path d="M0 0 C0.33 0.66 0.66 1.32 1 2 C2.95682498 2.24139354 2.95682498 2.24139354 5.3125 2.25 C13.43237704 2.88089692 20.68775342 7.00405129 27 12 C26.34 13.65 25.68 15.3 25 17 C21.72666056 16.40288533 19.95157288 15.33233539 17.4375 13.1875 C13.40666391 10.03391905 9.35525633 8.43571206 4.515625 6.859375 C2.21339493 6.07289889 0.14376591 5.14200614 -2 4 C-1.34 4 -0.68 4 0 4 C0 2.68 0 1.36 0 0 Z " fill="#7BDED7" transform="translate(491,410)"/>
<path d="M0 0 C0.66 0.33 1.32 0.66 2 1 C-1.35467611 9.62631 -5.39660062 18.43118511 -13.75 23.125 C-19.13155468 25.48460474 -24.21846786 25.49461777 -30 25 C-30 24.67 -30 24.34 -30 24 C-26.7 24 -23.4 24 -20 24 C-19.67 23.01 -19.34 22.02 -19 21 C-18.03248377 19.96853873 -17.0277446 18.97146335 -16 18 C-14.91012428 16.73477299 -13.82720361 15.46353325 -12.75 14.1875 C-9.89927745 10.88889323 -6.91810955 8.09646968 -3.48046875 5.421875 C-1.7698555 3.77896412 -0.94591521 2.15945521 0 0 Z " fill="#D0EFEE" transform="translate(308,535)"/>
<path d="M0 0 C9.67222705 -0.5457683 16.94842005 0.31507568 25.27734375 5.38671875 C25.84582031 5.91910156 26.41429687 6.45148438 27 7 C27 8.32 27 9.64 27 11 C25.68 10.34 24.36 9.68 23 9 C23 8.34 23 7.68 23 7 C13.572716 2.44952253 1.34342524 4.67985954 -8.328125 7.44140625 C-11.02338632 8.00488924 -12.44213145 7.91961465 -15 7 C-13.25447527 6.15733289 -11.5033792 5.32619962 -9.75 4.5 C-8.77546875 4.0359375 -7.8009375 3.571875 -6.796875 3.09375 C-4 2 -4 2 0 2 C0 1.34 0 0.68 0 0 Z " fill="#9AD7D7" transform="translate(550,276)"/>
<path d="M0 0 C2.125 0.5 2.125 0.5 3.125 1.5 C5.46444736 1.21269945 7.7989143 0.88063221 10.125 0.5 C10.455 1.16 10.785 1.82 11.125 2.5 C8.59304516 4.0191729 7.06032343 4.50263986 4.0625 4.625 C-1.77271245 5.30851729 -6.64293181 9.69922538 -10.875 13.5 C-12.58739945 16.00617661 -12.58739945 16.00617661 -13.875 18.5 C-14.535 19.49 -15.195 20.48 -15.875 21.5 C-15.68324089 13.49841521 -15.68324089 13.49841521 -12.75 9.875 C-11.80125 9.09125 -10.8525 8.3075 -9.875 7.5 C-8.70553338 6.23174282 -7.53899623 4.96077972 -6.375 3.6875 C-3.27784745 0.57006043 -3.27784745 0.57006043 0 0 Z " fill="#DCF4F3" transform="translate(339.875,380.5)"/>
<path d="M0 0 C1 3 1 3 0.28515625 5.05078125 C-2.79022174 10.73973926 -6.2138093 14.91322463 -12 18 C-12.99 18 -13.98 18 -15 18 C-15 13.30936753 -13.48019939 11.09700281 -10.3125 7.875 C-7.07244657 4.82759839 -3.80931325 2.28558795 0 0 Z " fill="#F2FBFA" transform="translate(317,402)"/>
<path d="M0 0 C1.89551022 -0.05441656 3.7914792 -0.09298035 5.6875 -0.125 C6.74324219 -0.14820313 7.79898438 -0.17140625 8.88671875 -0.1953125 C12.0563922 0.00353778 14.20320338 0.51212465 17 2 C17.35919668 3.66128463 17.68911632 5.32900023 18 7 C19.2375 8.2375 19.2375 8.2375 20.5 9.5 C23.14439401 12.14439401 23.68772537 13.35679601 24 17 C23.2575 16.21625 22.515 15.4325 21.75 14.625 C19.27676115 11.99697202 19.27676115 11.99697202 16.8125 10.9375 C15 10 15 10 14 7.9375 C13.1704178 5.78719721 13.1704178 5.78719721 10.875 5.25 C10.25625 5.1675 9.6375 5.085 9 5 C9 4.34 9 3.68 9 3 C5.7 3 2.4 3 -1 3 C-0.67 2.01 -0.34 1.02 0 0 Z " fill="#6CD3CE" transform="translate(554,267)"/>
<path d="M0 0 C1.98 0 3.96 0 6 0 C5.36557149 4.4935558 3.61371434 8.2448633 1.62109375 12.26953125 C1.28956802 12.95053391 0.9580423 13.63153656 0.61647034 14.33317566 C-0.43779055 16.49563594 -1.50000558 18.65407518 -2.5625 20.8125 C-3.28112852 22.28294444 -3.9992333 23.75364496 -4.71679688 25.22460938 C-6.47181363 28.81939994 -8.23397181 32.41060711 -10 36 C-11.31218984 32.06343049 -10.02719095 29.85924057 -8.5078125 26.21484375 C-8.24241669 25.55795059 -7.97702087 24.90105743 -7.70358276 24.22425842 C-6.85287337 22.12495938 -5.98904794 20.03133936 -5.125 17.9375 C-4.54993235 16.52313131 -3.97570335 15.10842134 -3.40234375 13.69335938 C0.69863949 3.60272102 0.69863949 3.60272102 2 1 C1.34 0.67 0.68 0.34 0 0 Z " fill="#6DDAD7" transform="translate(340,484)"/>
<path d="M0 0 C0 0.33 0 0.66 0 1 C-1.27875 1.309375 -2.5575 1.61875 -3.875 1.9375 C-6.10101675 2.47605244 -7.94739999 2.9737 -10 4 C-10.99 3.67 -11.98 3.34 -13 3 C-14.67482946 3.64588582 -16.34065709 4.31530785 -18 5 C-20.75390625 5.37890625 -20.75390625 5.37890625 -23.5625 5.5625 C-26.83300184 5.78476712 -29.84309258 6.10120989 -33 7 C-33 6.01 -33 5.02 -33 4 C-30.15369146 2.57684573 -27.54757223 2.76766385 -24.375 2.625 C-20.14853384 2.36650054 -16.56566987 2.10562347 -12.6875 0.375 C-8.07970282 -1.34316166 -4.74124799 -0.91093422 0 0 Z " fill="#E3F5F5" transform="translate(561,283)"/>
<path d="M0 0 C-1.00417969 0.03738281 -2.00835938 0.07476562 -3.04296875 0.11328125 C-11.09342978 0.4792113 -18.51456637 1.31494349 -26.328125 3.4765625 C-29.0095645 4.00187375 -30.45847018 3.90768922 -33 3 C-24.33065125 -2.01909665 -9.03959342 -5.50236121 0 0 Z " fill="#AFE0E0" transform="translate(568,280)"/>
<path d="M0 0 C6.40967041 -0.4006044 11.19175888 0.14682892 17 3 C18.3125 5.125 18.3125 5.125 19 7 C19.99 7.33 20.98 7.66 22 8 C21.67 8.66 21.34 9.32 21 10 C18.96166576 8.7260411 16.96147874 7.38938077 15 6 C15 5.34 15 4.68 15 4 C13.35 3.67 11.7 3.34 10 3 C9.01 4.485 9.01 4.485 8 6 C5.69 5.34 3.38 4.68 1 4 C1.33 3.34 1.66 2.68 2 2 C1.34 1.34 0.68 0.68 0 0 Z " fill="#DCE6E6" transform="translate(554,281)"/>
<path d="M0 0 C0.72380859 0.00322266 1.44761719 0.00644531 2.19335938 0.00976562 C2.90556641 -0.00634766 3.61777344 -0.02246094 4.3515625 -0.0390625 C10.55834922 -0.04480421 13.49646911 1.81475341 18.19335938 5.57226562 C20.9435539 9.02965302 20.80325618 11.01381824 20.38085938 15.32226562 C19.96900391 14.44441406 19.96900391 14.44441406 19.54882812 13.54882812 C17.09002881 8.86148494 14.15286644 5.15402404 9.31835938 2.88476562 C3.66413258 2.07701894 -1.91856494 2.16796433 -7.61914062 2.32226562 C-5.0952854 -0.2015896 -3.45106438 0.03531322 0 0 Z " fill="#C1E7E7" transform="translate(557.619140625,279.677734375)"/>
<path d="M0 0 C0 3 0 3 -1.28515625 4.32421875 C-1.87167969 4.77410156 -2.45820312 5.22398437 -3.0625 5.6875 C-6.59440505 8.55449175 -9.47966704 11.70498017 -12.421875 15.1640625 C-14.18445531 17.2145891 -16.04971072 19.12772229 -18 21 C-18.66 20.67 -19.32 20.34 -20 20 C-17.79776179 17.59850306 -15.58712559 15.20488935 -13.375 12.8125 C-12.75753906 12.13896484 -12.14007812 11.46542969 -11.50390625 10.77148438 C-7.8733195 6.85427236 -4.18715347 3.3175139 0 0 Z " fill="#2A2623" transform="translate(529,436)"/>
<path d="M0 0 C1.0209375 0.2165625 1.0209375 0.2165625 2.0625 0.4375 C2.0625 1.0975 2.0625 1.7575 2.0625 2.4375 C0.19921875 3.98046875 0.19921875 3.98046875 -2.25 5.625 C-3.05050781 6.17542969 -3.85101563 6.72585938 -4.67578125 7.29296875 C-5.42214844 7.67066406 -6.16851562 8.04835938 -6.9375 8.4375 C-7.9275 8.1075 -8.9175 7.7775 -9.9375 7.4375 C-3.86310175 0.57535558 -3.86310175 0.57535558 0 0 Z M-11.9375 8.4375 C-11.2775 8.4375 -10.6175 8.4375 -9.9375 8.4375 C-11.30733503 11.59865776 -11.9265638 12.4302092 -14.9375 14.4375 C-13.0625 9.5625 -13.0625 9.5625 -11.9375 8.4375 Z " fill="#D0EDED" transform="translate(339.9375,380.5625)"/>
<path d="M0 0 C0.66 0.33 1.32 0.66 2 1 C-0.7387273 6.37211894 -3.23941658 9.33038362 -8 13 C-9.35099103 14.31543863 -10.69205669 15.64175118 -12 17 C-12.99 16.67 -13.98 16.34 -15 16 C-7.74527453 8.58325833 -7.74527453 8.58325833 -4.125 5.75 C-1.94917961 3.95814791 -1.02093719 2.59874921 0 0 Z " fill="#DDF4F3" transform="translate(308,535)"/>
<path d="M0 0 C0 5.22161486 -3.7260188 9.11827378 -7 13 C-9.03756594 14.49392036 -10.59055894 15.17726403 -13 16 C-11.3383196 11.87582937 -8.37661982 8.93445961 -5.375 5.75 C-4.859375 5.19570313 -4.34375 4.64140625 -3.8125 4.0703125 C-2.54574965 2.7097288 -1.27342185 1.35434163 0 0 Z " fill="#BCE8E8" transform="translate(306,542)"/>
<path d="M0 0 C2.86237248 2.86237248 3.90730493 4.06081905 4.09765625 8.04296875 C4.06510417 10.02864583 4.03255208 12.01432292 4 14 C3.34 13.01 2.68 12.02 2 11 C1.01 12.485 1.01 12.485 0 14 C-0.66 14 -1.32 14 -2 14 C-1.34 9.38 -0.68 4.76 0 0 Z " fill="#BEA389" transform="translate(844,614)"/>
<path d="M0 0 C0.33 0.99 0.66 1.98 1 3 C-2.82573388 6.92496041 -6.61997324 10.68179791 -11 14 C-11.66 13.67 -12.32 13.34 -13 13 C-8.71 8.71 -4.42 4.42 0 0 Z M-15 14 C-14.34 14.33 -13.68 14.66 -13 15 C-13.99 15 -14.98 15 -16 15 C-15.67 14.67 -15.34 14.34 -15 14 Z " fill="#85DED7" transform="translate(759,468)"/>
<path d="M0 0 C-0.66 3.3 -1.32 6.6 -2 10 C-2.33 8.68 -2.66 7.36 -3 6 C-3.33 5.67 -3.66 5.34 -4 5 C-8.455 8.96 -8.455 8.96 -13 13 C-13.66 12.67 -14.32 12.34 -15 12 C-12.88046983 9.99390948 -10.75486559 7.99506397 -8.625 6 C-8.02171875 5.42765625 -7.4184375 4.8553125 -6.796875 4.265625 C-6.21679688 3.72421875 -5.63671875 3.1828125 -5.0390625 2.625 C-4.50490723 2.12226562 -3.97075195 1.61953125 -3.42041016 1.1015625 C-2 0 -2 0 0 0 Z " fill="#8EE1D9" transform="translate(793,537)"/>
<path d="M0 0 C0.33 0.66 0.66 1.32 1 2 C3.35599235 2.46751788 3.35599235 2.46751788 6.0625 2.625 C7.44115234 2.73714844 7.44115234 2.73714844 8.84765625 2.8515625 C9.55792969 2.90054687 10.26820313 2.94953125 11 3 C9.36587557 4.70840281 8.13093906 5.93453047 6 7 C4.0546875 6.66015625 4.0546875 6.66015625 1.875 6.0625 C1.15054687 5.86785156 0.42609375 5.67320312 -0.3203125 5.47265625 C-0.87460937 5.31667969 -1.42890625 5.16070312 -2 5 C-1.34 4.67 -0.68 4.34 0 4 C0 2.68 0 1.36 0 0 Z " fill="#90E1DD" transform="translate(491,410)"/>
<path d="M0 0 C0.33 0 0.66 0 1 0 C1 1.98 1 3.96 1 6 C1.99 6.33 2.98 6.66 4 7 C3.19185349 8.33597652 2.37836819 9.668725 1.5625 11 C0.88380859 12.11375 0.88380859 12.11375 0.19140625 13.25 C-0.20175781 13.8275 -0.59492188 14.405 -1 15 C-1.33 15 -1.66 15 -2 15 C-1.85816304 13.24967156 -1.71136571 11.49974466 -1.5625 9.75 C-1.48128906 8.77546875 -1.40007812 7.8009375 -1.31640625 6.796875 C-1.04925416 4.43538247 -0.64628032 2.28098935 0 0 Z " fill="#72DBD6" transform="translate(372,415)"/>
<path d="M0 0 C-0.90492188 0.47179687 -0.90492188 0.47179687 -1.828125 0.953125 C-6.1503191 3.26759023 -9.63905779 5.37018242 -13 9 C-13.66 9 -14.32 9 -15 9 C-13.43989422 4.78771439 -10.5154607 2.65453155 -7 0 C-3.86650268 -1.04449911 -3.01031744 -0.93423645 0 0 Z " fill="#9CE1DF" transform="translate(340,375)"/>
<path d="M0 0 C-4.13093004 3.80045564 -8.56264337 4 -14 4 C-11.61605071 0.72206973 -8.67917602 0.16979401 -4.9375 -0.765625 C-3 -1 -3 -1 0 0 Z " fill="#E8F6F6" transform="translate(351,382)"/>
<path d="M0 0 C0.33 0.66 0.66 1.32 1 2 C2.65 2 4.3 2 6 2 C2.71536341 4.18975773 -0.20696275 4.99806563 -4 6 C-4 5.34 -4 4.68 -4 4 C-4.66 3.67 -5.32 3.34 -6 3 C-4.02 2.01 -2.04 1.02 0 0 Z " fill="#86DEDA" transform="translate(532,280)"/>
<path d="M0 0 C0 4.13781054 -1.71509607 5.20919996 -4.5 8.1875 C-5.3353125 9.08855469 -6.170625 9.98960937 -7.03125 10.91796875 C-7.6809375 11.60503906 -8.330625 12.29210937 -9 13 C-9.66 12.67 -10.32 12.34 -11 12 C-7.37 8.04 -3.74 4.08 0 0 Z " fill="#75DCD5" transform="translate(346,624)"/>
<path d="M0 0 C0.66 0.33 1.32 0.66 2 1 C-1.96 6.94 -1.96 6.94 -6 13 C-6.33 12.34 -6.66 11.68 -7 11 C-6.07421875 8.65234375 -6.07421875 8.65234375 -4.6875 5.9375 C-4.23761719 5.03902344 -3.78773438 4.14054687 -3.32421875 3.21484375 C-2 1 -2 1 0 0 Z " fill="#DBDADA" transform="translate(478,494)"/>
<path d="M0 0 C-3.85623679 3.97674419 -3.85623679 3.97674419 -7.11328125 4.04296875 C-9.08863015 3.7798228 -11.04718291 3.39718314 -13 3 C-9.39091002 -0.60908998 -4.88215348 -0.11353845 0 0 Z " fill="#D9F4F3" transform="translate(528,288)"/>
<path d="M0 0 C0 2.64 0 5.28 0 8 C-0.33 6.68 -0.66 5.36 -1 4 C-2.98 5.32 -4.96 6.64 -7 8 C-4.18918919 0 -4.18918919 0 0 0 Z " fill="#A2E9E3" transform="translate(378,586)"/>
<path d="M0 0 C2.875 0.75 2.875 0.75 6 2 C7.1875 4.0625 7.1875 4.0625 8 6 C8.99 6.33 9.98 6.66 11 7 C10.67 7.66 10.34 8.32 10 9 C5.82117329 6.43571997 2.87494471 3.98069267 0 0 Z " fill="#DAF0F0" transform="translate(565,282)"/>
<path d="M0 0 C0.80050781 0.12761719 1.60101562 0.25523437 2.42578125 0.38671875 C3.23402344 0.50660156 4.04226563 0.62648438 4.875 0.75 C5.48988281 0.85699219 6.10476563 0.96398437 6.73828125 1.07421875 C6.73828125 1.40421875 6.73828125 1.73421875 6.73828125 2.07421875 C4.82015625 2.53828125 4.82015625 2.53828125 2.86328125 3.01171875 C0.6372645 3.55027119 -1.20911874 4.04791875 -3.26171875 5.07421875 C-3.92171875 4.41421875 -4.58171875 3.75421875 -5.26171875 3.07421875 C-3.53640014 0.90221572 -2.83921072 0.09316926 0 0 Z " fill="#F1F7F7" transform="translate(554.26171875,281.92578125)"/>
<path d="M0 0 C0.33 0.66 0.66 1.32 1 2 C-1.70879335 3.35439668 -4.00933268 3.06501451 -7 3 C-7 2.34 -7 1.68 -7 1 C-3.375 -1.125 -3.375 -1.125 0 0 Z " fill="#D8C5AD" transform="translate(837,638)"/>
<path d="M0 0 C1.41687119 4.25061356 0.19320039 6.71851625 -1 11 C-2.32 11.33 -3.64 11.66 -5 12 C-3.68938409 7.76570244 -2.05643741 3.92592596 0 0 Z " fill="#69DCD5" transform="translate(219,379)"/>
<path d="M0 0 C1.32 0.99 2.64 1.98 4 3 C1.36 4.98 -1.28 6.96 -4 9 C-2.80100302 5.9168649 -1.52299523 2.93720508 0 0 Z " fill="#8AE3DD" transform="translate(738,328)"/>
<path d="M0 0 C3.14737182 0.69941596 6.02588876 1.76078698 9 3 C9 4.32 9 5.64 9 7 C7.68 6.34 6.36 5.68 5 5 C5 4.34 5 3.68 5 3 C2.525 2.01 2.525 2.01 0 1 C0 0.67 0 0.34 0 0 Z " fill="#ABDEDD" transform="translate(568,280)"/>
<path d="M0 0 C0.99 0.495 0.99 0.495 2 1 C2.73075648 3.3140622 3.40138258 5.64828869 4 8 C3.34 8 2.68 8 2 8 C1.67 8.99 1.34 9.98 1 11 C0.67 7.37 0.34 3.74 0 0 Z " fill="#72DAD1" transform="translate(123,651)"/>
<path d="M0 0 C0.33 0 0.66 0 1 0 C1 4.62 1 9.24 1 14 C0.67 14 0.34 14 0 14 C-2.27571116 5.96498906 -2.27571116 5.96498906 -1.125 1.9375 C-0.75375 1.298125 -0.3825 0.65875 0 0 Z " fill="#6ADAD8" transform="translate(856,261)"/>
<path d="M0 0 C1.98 0 3.96 0 6 0 C5.67 1.65 5.34 3.3 5 5 C4.01 5.33 3.02 5.66 2 6 C2 4.35 2 2.7 2 1 C1.34 0.67 0.68 0.34 0 0 Z " fill="#5CD5D0" transform="translate(340,484)"/>
<path d="M0 0 C0.66 0.33 1.32 0.66 2 1 C3.87056791 1.2275015 5.74685958 1.40962811 7.625 1.5625 C8.62789063 1.64628906 9.63078125 1.73007812 10.6640625 1.81640625 C11.43492187 1.87699219 12.20578125 1.93757813 13 2 C13 2.33 13 2.66 13 3 C8.05 3 3.1 3 -2 3 C-1.34 2.01 -0.68 1.02 0 0 Z " fill="#D8F6F5" transform="translate(259,488)"/>
<path d="M0 0 C0.66 0.33 1.32 0.66 2 1 C2 4 2 4 0.625 5.6875 C-1 7 -1 7 -3 7 C-1.125 1.125 -1.125 1.125 0 0 Z " fill="#7CDFD6" transform="translate(639,548)"/>
<path d="M0 0 C0.33 0.66 0.66 1.32 1 2 C-1.0140476 5.0210714 -2.63279613 6.60667426 -6 8 C-4.55746343 4.63408134 -2.66735273 2.48952921 0 0 Z " fill="#DAD9DA" transform="translate(582,528)"/>
<path d="M0 0 C0.99 0.33 1.98 0.66 3 1 C0.525 4.465 0.525 4.465 -2 8 C-2.33 7.34 -2.66 6.68 -3 6 C-2.06553465 3.96855359 -1.06775224 1.96466413 0 0 Z " fill="#CBC9C9" transform="translate(653,467)"/>
<path d="M0 0 C0.33 0 0.66 0 1 0 C0.125 6.75 0.125 6.75 -1 9 C-1.66 9 -2.32 9 -3 9 C-2.01 6.03 -1.02 3.06 0 0 Z " fill="#44403D" transform="translate(617,445)"/>
</svg>
